<svg id="Capa_1" enable-background="new 0 0 512 512" height="512" viewBox="0 0 512 512" width="512" xmlns="http://www.w3.org/2000/svg"><g><path d="m464 96v416h-416v-512h320l28.75 66.21z" fill="#ecf2ff"/><path d="m464 96v416h-208v-512h112l28.75 66.21z" fill="#dae6fe"/><path d="m368 0v96h96z" fill="#c0d7fe"/><path d="m16 219.3h480v224h-480z" fill="#fd7f49"/><path d="m256 219.3h240v224h-240z" fill="#ca3a4e"/><path d="m120.5 150.62h271v30h-271z" fill="#dae6fe"/><path d="m120.5 90.38h180.62v30h-180.62z" fill="#dae6fe"/><path d="m256 90.38h45.12v30h-45.12z" fill="#c0d7fe"/><path d="m256 150.62h135.5v30h-135.5z" fill="#c0d7fe"/><path d="m324.812 305.405-24.379-34.33h-24.745v120.487h30v-61.275l19.124 26.931 19.126-26.931v61.275h30v-120.487h-24.746z" fill="#dae6fe"/><path d="m434.188 361.548v-90.486h-30v120.486h45.124v-30z" fill="#dae6fe"/><g fill="#ecf2ff"><path d="m180.625 301.075h22.687v90.487h30v-90.487h22.688v-30h-75.375z"/><path d="m130.938 316.312h-30.25v-45.25h-30v120.5h30v-45.25h30.25v45.25h30v-120.5h-30z"/></g></g></svg>